HIERARCHY
ROOT Hips
{
	OFFSET 0.000000 0.000000 0.000000
	CHANNELS 6 Xposition Yposition Zposition Zrotation Yrotation Xrotation 
	JOINT LHipJoint
	{
		OFFSET 0.000000 0.000000 0.000000
		CHANNELS 3 Zrotation Yrotation Xrotation
		JOINT LeftUpLeg
		{
			OFFSET 1.363060 -1.794630 0.839290
			CHANNELS 3 Zrotation Yrotation Xrotation
			JOINT LeftLeg
			{
				OFFSET 2.448110 -6.726130 0.000000
				CHANNELS 3 Zrotation Yrotation Xrotation
				JOINT LeftFoot
				{
					OFFSET 2.562200 -7.039590 0.000000
					CHANNELS 3 Zrotation Yrotation Xrotation
					JOINT LeftToeBase
					{
						OFFSET 0.157640 -0.433110 2.322550
						CHANNELS 3 Zrotation Yrotation Xrotation
						End Site
						{
							OFFSET 0.000000 0.000000 0.000000
						}
					}
				}
			}
		}
	}
	JOINT RHipJoint
	{
		OFFSET 0.000000 0.000000 0.000000
		CHANNELS 3 Zrotation Yrotation Xrotation
		JOINT RightUpLeg
		{
			OFFSET -1.305520 -1.794630 0.839290
			CHANNELS 3 Zrotation Yrotation Xrotation
			JOINT RightLeg
			{
				OFFSET -2.542530 -6.985550 0.000000
				CHANNELS 3 Zrotation Yrotation Xrotation
				JOINT RightFoot
				{
					OFFSET -2.568260 -7.056230 0.000000
					CHANNELS 3 Zrotation Yrotation Xrotation
					JOINT RightToeBase
					{
						OFFSET -0.164730 -0.452590 2.363150
						CHANNELS 3 Zrotation Yrotation Xrotation
						End Site
						{
							OFFSET 0.000000 0.000000 0.000000
						}
					}
				}
			}
		}
	}
	JOINT LowerBack
	{
		OFFSET 0.000000 0.000000 0.000000
		CHANNELS 3 Zrotation Yrotation Xrotation
		JOINT Spine
		{
			OFFSET 0.028270 2.035590 -0.193380
			CHANNELS 3 Zrotation Yrotation Xrotation
			JOINT Spine1
			{
				OFFSET 0.056720 2.048850 -0.042750
				CHANNELS 3 Zrotation Yrotation Xrotation
				JOINT Neck
				{
					OFFSET 0.000000 0.000000 0.000000
					CHANNELS 3 Zrotation Yrotation Xrotation
					JOINT Neck1
					{
						OFFSET -0.054170 1.746240 0.172020
						CHANNELS 3 Zrotation Yrotation Xrotation
						JOINT Head
						{
							OFFSET 0.104070 1.761360 -0.123970
							CHANNELS 3 Zrotation Yrotation Xrotation
							End Site
							{
								OFFSET 0.000000 0.000000 0.000000
							}
						}
					}
				}
				JOINT LeftShoulder
				{
					OFFSET 0.000000 0.000000 0.000000
					CHANNELS 3 Zrotation Yrotation Xrotation
					JOINT LeftArm
					{
						OFFSET 3.362410 1.200890 -0.311210
						CHANNELS 3 Zrotation Yrotation Xrotation
						JOINT LeftForeArm
						{
							OFFSET 4.983000 -0.000000 -0.000000
							CHANNELS 3 Zrotation Yrotation Xrotation
							JOINT LeftHand
							{
								OFFSET 3.483560 -0.000000 -0.000000
								CHANNELS 3 Zrotation Yrotation Xrotation
								JOINT LeftFingerBase
								{
									OFFSET 0.000000 0.000000 0.000000
									CHANNELS 3 Zrotation Yrotation Xrotation
									JOINT LeftHandIndex1
									{
										OFFSET 0.715260 -0.000000 -0.000000
										CHANNELS 3 Zrotation Yrotation Xrotation
										End Site
										{
											OFFSET 0.000000 0.000000 0.000000
										}
									}
								}
								JOINT LThumb
								{
									OFFSET 0.000000 0.000000 0.000000
									CHANNELS 3 Zrotation Yrotation Xrotation
									End Site
									{
										OFFSET 0.000000 0.000000 0.000000
									}
								}
							}
						}
					}
				}
				JOINT RightShoulder
				{
					OFFSET 0.000000 0.000000 0.000000
					CHANNELS 3 Zrotation Yrotation Xrotation
					JOINT RightArm
					{
						OFFSET -3.136600 1.374050 -0.404650
						CHANNELS 3 Zrotation Yrotation Xrotation
						JOINT RightForeArm
						{
							OFFSET -5.241900 -0.000000 -0.000000
							CHANNELS 3 Zrotation Yrotation Xrotation
							JOINT RightHand
							{
								OFFSET -3.444170 -0.000000 -0.000000
								CHANNELS 3 Zrotation Yrotation Xrotation
								JOINT RightFingerBase
								{
									OFFSET 0.000000 0.000000 0.000000
									CHANNELS 3 Zrotation Yrotation Xrotation
									JOINT RightHandIndex1
									{
										OFFSET -0.622530 -0.000000 -0.000000
										CHANNELS 3 Zrotation Yrotation Xrotation
										End Site
										{
											OFFSET 0.000000 0.000000 0.000000
										}
									}
								}
								JOINT RThumb
								{
									OFFSET 0.000000 0.000000 0.000000
									CHANNELS 3 Zrotation Yrotation Xrotation
									End Site
									{
										OFFSET 0.000000 0.000000 0.000000
									}
								}
							}
						}
					}
				}
			}
		}
	}
}
MOTION
Frames: 4
Frame Time: 0.008333
-7.950782 16.197812 -0.364054 -141.761284 86.908971 -122.667811 -12.373907 3.149891 -1.602767 -4.832313 -1.236245 5.406876 -0.619020 2.036109 26.428215 0.758535 3.308024 5.576685 0.610700 0.000001 -79.809900 7.438322 1.130975 1.853797 0.272261 6.577276 -48.524550 2.222414 -1.465081 20.702588 1.133873 7.131233 11.521237 1.919100 -0.000000 -62.586100 7.788189 -3.353110 2.030999 0.213860 -3.883647 -1.910730 -8.966711 -3.811710 2.341912 9.744455 -7.849662 -7.091854 -4.498396 -0.337627 -0.005526 0.000000 0.000000 0.000000 3.253148 7.877010 2.901606 -18.566449 -5.533975 13.788586 -0.430113 -82.369431 0.027421 -12.904609 -3.223741 0.385000 0.110886 0.153608 0.000000 0.000000 0.000000 0.000000 0.000000 0.000000 0.000000 21.080818 -7.166110 1.075723 55.880127 -3.757149 -21.814447 4.303083 11.933783 0.021203 3.369253 8.551741 0.246095 0.111068 -0.067184 -0.000000 0.000000 0.000000 0.000000 0.000000 0.000000 0.000000 
-7.707065 16.206427 -0.383797 -139.271671 86.453082 -120.233202 -12.798340 3.120942 -1.659677 -4.001369 -0.581256 3.839555 -0.325655 2.242798 29.862733 0.964962 4.443187 7.409678 0.899200 0.000000 -77.158100 7.225378 0.974074 1.681100 1.115470 6.583041 -48.499823 2.162247 -1.647479 22.799631 1.072875 6.768238 11.216914 1.765300 -0.000000 -61.364401 8.520494 -3.265882 2.200541 0.359425 -3.823535 -1.901756 -8.971437 -3.754151 2.306557 9.636681 -7.512966 -7.046959 -4.538538 -0.340540 0.001642 0.000000 0.000000 0.000000 3.045056 8.257504 2.872946 -19.248947 -4.991123 14.503017 -0.436766 -82.519129 0.026257 -12.927478 -3.321358 0.396113 0.106632 0.147783 0.000000 0.000000 0.000000 0.000000 0.000000 0.000000 0.000000 21.056424 -6.783155 1.065578 56.015178 -3.520205 -22.531538 4.273197 11.541972 0.020953 2.992972 8.646779 0.220192 0.110585 -0.068800 -0.000000 0.000000 0.000000 0.000000 0.000000 0.000000 0.000000 
-7.468020 16.222696 -0.401680 -138.582170 85.950510 -119.579161 -13.163259 3.060386 -1.720578 -3.244775 0.115471 2.078629 -0.060777 2.422296 33.401114 1.208467 5.873760 8.984567 1.306200 0.000001 -72.822100 7.066722 0.847363 1.514634 1.900637 6.451884 -48.329460 2.125312 -1.785692 24.584351 1.005637 6.344328 10.508303 1.555101 -0.000000 -60.499500 9.178189 -3.170336 2.360498 0.488507 -3.751095 -1.896031 -8.973596 -3.684941 2.264253 9.556699 -7.152610 -6.959777 -4.582222 -0.344037 0.020284 0.000000 0.000000 0.000000 2.872797 8.527773 2.838647 -20.094277 -4.477646 15.232011 -0.453089 -82.511231 0.025113 -12.946559 -3.397112 0.404536 0.101872 0.141611 -0.000000 0.000000 0.000000 0.000000 0.000000 0.000000 0.000000 21.063144 -6.393980 1.053621 56.234493 -3.255072 -23.246203 4.235596 11.157829 0.020616 2.611624 8.744216 0.193388 0.109729 -0.070315 -0.000000 0.000000 0.000000 0.000000 0.000000 0.000000 0.000000 
-7.233761 16.246668 -0.417265 -139.252505 85.409698 -120.261561 -13.466756 2.974649 -1.782627 -2.575496 0.829285 0.140176 0.162809 2.583493 36.988432 1.474817 7.557626 10.168959 1.821700 0.000000 -67.026499 6.958605 0.749558 1.357789 2.604794 6.206991 -48.004413 2.111964 -1.879881 26.035761 0.932308 5.874543 9.467567 1.309900 -0.000000 -60.029300 9.749618 -3.066054 2.502204 0.598117 -3.666545 -1.892934 -8.974988 -3.603779 2.223095 9.506741 -6.786836 -6.839753 -4.628393 -0.347931 0.047987 0.000000 0.000000 0.000000 2.715192 8.716328 2.799832 -21.047207 -4.051995 15.981128 -0.479981 -82.331360 0.023975 -12.961287 -3.450655 0.410268 0.096668 0.135140 0.000000 0.000000 0.000000 0.000000 0.000000 0.000000 0.000000 21.107802 -6.018002 1.038062 56.531099 -2.938736 -23.929883 4.191849 10.782385 0.020197 2.230440 8.841380 0.165883 0.108530 -0.071708 -0.000000 0.000000 0.000000 0.000000 0.000000 0.000000 0.000000 
